<svg class="svg-icon" style="width: 1em;height: 1em;vertical-align: middle;fill: currentColor;overflow: hidden;" viewBox="0 0 1024 1024" version="1.1" xmlns="http://www.w3.org/2000/svg"><path d="M663.444211 98.034526c-47.373474 0-70.038283-28.713457-71.190802-30.218364a16.582996 16.582996 0 0 1 26.205279-20.330753c1.181538 1.442721 23.303255 27.216842 73.541442 13.133733a16.582996 16.582996 0 0 1 8.950672 31.934704c-13.888259 3.897004-26.379401 5.48068-37.506591 5.48068z" fill="#6E6E96" /><path d="M636.994332 640.605279c36.383093-3.56949 75.328259-19.020696 111.06047-37.991643 58.500664-31.084826 108.382316-71.62196 124.331012-85.116373 0 0 56.577036-18.20813 31.010202-56.274397 0 0 9.74251-36.374802-12.996923-49.682655-22.735287-13.303709-76.659045 20.815806-80.348761 66.667789-35.50834 23.597603-68.860891 36.826688-101.749117 40.047935-109.605312 20.699725-154.810559 33.829312-154.810559 33.829312" fill="#F9D5B3" /><path d="M657.652599 580.106364s138.227563-30.015223 185.779304-90.128583c47.560032-60.109215 48.289684-31.843498 48.289684-31.843498s32.79702-36.163368-7.408453-36.163368c-40.217911 0-71.087158 49.881652-71.087158 49.881652s-159.097263 66.464648-197.362527 66.464648l41.78915 41.789149z" fill="#FFE2C7" /><path d="M642.334057 654.485247a16.582996 16.582996 0 0 1-1.600259-33.083077c30.002785-2.947628 65.295547-15.102964 104.89574-36.134348 57.725409-30.666105 107.515854-71.385652 121.395822-83.134705a16.636891 16.636891 0 0 1 5.629927-3.125894c8.722656-2.873004 22.971595-10.836988 25.682915-18.747077 0.422866-1.227142 1.703903-4.962462-3.358056-12.495288a16.562267 16.562267 0 0 1-2.255288-13.53587c1.305911-5.074397 4.29085-25.43417-5.352162-31.08068-1.786818-1.040583-8.942381-1.392972-19.688162 4.207935-15.973571 8.32881-33.970267 27.366089-35.744647 49.475368a16.599579 16.599579 0 0 1-7.350413 12.486996c-37.780211 25.10251-73.305134 39.065393-108.568875 42.668049-106.711579 20.169069-152.111676 33.190866-152.559417 33.319384a16.595433 16.595433 0 0 1-20.542186-11.313749 16.57885 16.57885 0 0 1 11.301312-20.542186c1.878024-0.543093 47.228372-13.581474 156.356923-34.189992 0.480907-0.091206 0.970105-0.161684 1.463449-0.207287 28.091595-2.752777 56.933571-13.668534 87.964502-33.315239 6.11498-32.896518 31.312842-56.81749 52.352518-67.787142 19.356502-10.099045 38.232097-11.346915 51.772114-3.424388 23.377879 13.680972 25.334672 42.187142 22.175611 61.129069 7.653053 14.80447 6.218623 27.270737 3.362203 35.512485-7.922526 22.826494-33.879061 34.579692-43.538656 38.244535-20.181506 16.906364-68.255611 55.030672-124.940438 85.149538-43.443304 23.071093-82.881814 36.478445-117.212761 39.844794a16.860761 16.860761 0 0 1-1.641716 0.078769z" fill="#6E6E96" /><path d="M624.975806 882.178073c0.655028 42.071061 27.759935 75.763563 119.704356 74.358154 91.931984-1.438575 129.272745-36.113619 128.613571-78.192972-0.646737-42.066915-39.036372-75.601879-130.980794-74.188178-91.93613 1.421992-117.979725 35.943644-117.337133 78.022996z" fill="#F9D5B3" /><path d="M664.961555 865.105879c3.196372-18.684891 12.516016-34.633587 31.690105-44.740924 8.457328-3.515595 18.183255-6.629053 28.904162-9.261603 9.767385-1.679028 20.890429-2.504032 33.613733-2.317473 73.226364 1.140081 102.86847 34.098785 102.246607 74.171595a73.578753 73.578753 0 0 1-1.426138 13.394915c-17.312648 3.009814-36.461862 4.871255-56.647514 5.236081-67.310381 1.214704-123.883271-14.443789-138.380955-36.482591z" fill="#FFE2C7" /><path d="M744.543352 970.453506h-0.008291c-59.018883-0.004146-129.616842-15.745555-130.785944-90.721425-1.177393-76.671482 72.036534-93.909506 133.658948-94.875466 1.973377-0.02902 3.905296-0.045603 5.824777-0.045603 44.89017 0 80.075142 8.212729 104.588956 24.414316 24.04949 15.898947 36.984227 38.779336 37.407093 66.153717 0.431158 27.594105-12.656972 51.855028-36.843272 68.30536-24.998866 17.001717-61.369522 25.993846-108.096259 26.719352-1.948502 0.033166-3.855547 0.049749-5.746008 0.049749z m8.68949-152.472356c-1.749506 0-3.519741 0.016583-5.310704 0.045603-101.927385 1.587822-101.259919 44.89017-101.007029 61.195401 0.248745 15.878219 0.903773 58.06536 97.619952 58.069506h0.008291c1.724632 0 3.4617-0.016583 5.236081-0.045603 71.949474-1.123498 112.880453-23.485668 112.287612-61.348794-0.563822-36.810105-40.234494-57.916113-108.834203-57.916113z" fill="#6E6E96" /><path d="M491.279547 513.401263c-51.175126 0-24.654769 22.022219-61.543644 58.716243-46.287287 17.300211-78.947498 59.155692-78.947498 108.067239 0 11.807093 1.919482 23.216194 5.455806 33.953684-4.029668 20.189798-14.253085 44.977231-14.253085 66.700956 0 145.652599 104.174381 180.758802 222.767676 180.758801 118.58915 0 194.613895-38.812502 194.613894-184.469247 0.012437-145.656745-149.512291-263.727676-268.093149-263.727676z" fill="#F9D5B3" /><path d="M688.451368 724.046769c10.264874 72.857393-55.863968 80.42753-133.488971 80.427531-37.282721 0-83.292243-15.990154-121.051725-40.615903-15.853344-10.331206-72.289425 35.197409-56.734575-50.719093 5.003919-27.627271-15.314397-27.208551-15.314397-50.163563 0-72.127741 62.936615-130.632551 140.553328-130.632551 77.641587 0.008291 167.745296 61.792389 186.03634 191.703579z" fill="#FFE2C7" /><path d="M570.123401 975.478154c-71.787789 0-125.761296-12.594785-165.00081-38.501571-49.338559-32.57315-74.358154-86.016-74.358154-158.836081 0-16.553976 4.887838-33.829312 9.195272-49.069085 1.683174-5.957441 3.291725-11.645409 4.51472-16.889781a124.940437 124.940437 0 0 1-4.916858-34.699919c0-53.505036 33.692502-101.094089 86.165247-122.216681 10.430704-11.114753 13.776324-20.227109 16.757117-28.327902 8.167126-22.233652 18.353231-32.817749 54.155919-32.817749 62.911741 0 133.828923 30.500275 189.709474 81.584194 61.24515 55.992486 94.974964 126.565571 94.970818 198.722332-0.004146 178.196729-112.868016 201.052243-211.192745 201.052243z m-73.491692-448.196923c-18.954364 0-19.103611 0.418721-23.02549 11.089878-3.718737 10.115628-9.336227 25.409296-26.827142 42.796567a16.582996 16.582996 0 0 1-5.882818 3.776777c-41.416032 15.480227-68.172696 51.801134-68.172696 92.533118 0 9.767385 1.554656 19.451854 4.626656 28.775644a16.624453 16.624453 0 0 1 0.514072 8.428307c-1.513198 7.582575-3.789215 15.629474-5.986461 23.406899-3.905296 13.80949-7.947401 28.087449-7.947401 40.04379 0 112.009846 65.519417 164.175806 206.192972 164.175805 128.107789 0 178.022607-47.070834 178.022607-167.890397 0.004146-62.729328-29.894996-124.608777-84.183579-174.241684-49.931401-45.640551-112.486607-72.894704-167.33072-72.894704z" fill="#6E6E96" /><path d="M808.147433 948.427142c9.54766 8.764113 21.814931 13.382478 35.417134 14.576453 34.388988 3.022251 64.225943-16.927093 69.391546-75.74698 2.010688-22.88868-0.36068-44.442429-5.998898-62.434979 0 0-2.4377-50.876632-46.241685-50.876632-34.463611 0-53.844988 38.916146-53.844987 38.916146-9.564243 17.21315-16.292794 39.173182-18.419563 63.45898" fill="#F9D5B3" /><path d="M831.962649 931.124041a47.157895 72.529879 14.099 1 0 35.336279-140.690015 47.157895 72.529879 14.099 1 0-35.336279 140.690015Z" fill="#FFE2C7" /><path d="M855.516761 977.177911c-2.644988 0-5.327287-0.120227-8.05519-0.36068-17.826721-1.571239-33.447903-8.100794-45.184518-18.888033a16.582996 16.582996 0 0 1 22.445085-24.418461c6.392745 5.878672 15.024194 9.332081 25.653894 10.273166 13.502704 1.193976 24.509668-2.209684 32.685085-10.10319 10.215126-9.8503 16.690785-27.341215 18.738786-50.582284 1.753652-19.974219-0.087061-39.343158-5.306559-56.01736a16.379854 16.379854 0 0 1-0.742089-4.166478c-0.211433-3.511449-2.84813-35.085474-29.679417-35.085474-23.597603 0-38.878834 29.480421-39.028081 29.783061l-0.319223 0.601134c-8.867757 15.956988-14.539142 35.611984-16.400583 56.850656a16.524955 16.524955 0 0 1-17.967676 15.069797 16.582996 16.582996 0 0 1-15.069797-17.967676c2.255287-25.728518 9.27404-49.860923 20.305878-69.810267 2.57451-4.974899 25.93166-47.688551 68.479482-47.688551 24.393587 0 43.754235 12.379206 54.504162 34.861603 5.911838 12.350186 7.63647 24.422607 8.125668 29.47213 6.077668 20.330753 8.204437 43.451595 6.131563 66.999449-2.794235 31.77302-12.466267 55.847385-28.750769 71.551482-13.394915 12.918154-30.753166 19.625976-50.565701 19.625976z" fill="#6E6E96" /><path d="M422.244534 876.971012c16.371563 39.745296 10.691887 81.016227-12.681846 92.184875-23.373733 11.164502-55.594494-12.001943-71.970202-51.734802-16.371563-39.74115-10.691887-81.007935 12.690137-92.180729 23.382024-11.168648 55.594494 11.98536 71.961911 51.730656zM468.842753 583.020826s-47.058397-1.268599-158.334445 6.44664c-32.63119 5.182186-68.234883 0.825004-108.568875-13.017652-15.169296-43.430866-75.966704-62.803951-94.5977-44.172956-18.62685 18.62685 0 51.361684 0 51.361685-15.102964 43.294057 44.243433 46.589927 44.243433 46.589927 18.842429 9.02115 77.351385 35.636858 141.817781 50.901506 39.363887 9.315498 80.945749 14.410623 117.051077 8.660469" fill="#FFE2C7" /><path d="M115.881976 540.817101s28.211822 8.573409 28.211822 28.211822 81.06183 98.187919 276.413668 84.079935c0 0 30.210073 2.014834 30.210072 30.210073S374.775709 731.442785 374.775709 731.442785s-1.803401-30.802915-38.451822-38.451821c-36.648421-7.661344-275.335773-40.918543-220.441911-152.173863z" fill="#F9D5B3" /><path d="M383.150121 706.083239c-26.259174 0.004146-55.781053-3.851401-88.209101-11.525182-62.43498-14.779595-118.601587-39.517279-142.42306-50.777134-10.273166-1.102769-38.35647-5.899401-51.801134-25.981409-4.850526-7.246769-9.394267-18.941927-5.733571-35.201554-7.847903-17.528227-13.166899-45.599093 5.982316-64.748308 11.085733-11.094024 29.646251-14.671806 50.938818-9.800551 23.137425 5.28583 53.575514 22.055385 67.820307 52.344227 34.985976 11.156211 65.652081 14.423061 93.532243 9.987109a15.712389 15.712389 0 0 1 1.459304-0.16583c110.799287-7.686219 157.961328-6.529555 159.922267-6.479805a16.582996 16.582996 0 0 1-0.88719 33.1577c-0.472615-0.016583-47.676113-1.123498-156.029409 6.359579-35.019142 5.414348-72.919579 0.899628-115.815644-13.821927a16.57885 16.57885 0 0 1-10.277312-10.219271c-7.317247-20.956761-29.550899-34.816-47.116437-38.829085-11.794656-2.690591-18.630996-0.547239-20.094445 0.91621-7.963984 7.963984 0.228016 27.113198 2.682299 31.428923a16.57885 16.57885 0 0 1 1.243725 13.664389c-2.997377 8.589992-0.795984 11.881717-0.070478 12.963757 4.89613 7.313101 21.678121 11.164502 29.575774 11.603951 2.164081 0.120227 4.286704 0.66332 6.243498 1.604405 16.41302 7.86034 74.905393 34.666753 138.480453 49.719968 43.6423 10.335352 80.858688 13.171045 110.62102 8.424162a16.582996 16.582996 0 0 1 5.219498 32.751417c-10.977943 1.749506-22.75187 2.624259-35.263741 2.624259z" fill="#6E6E96" /><path d="M685.329619 199.870704c35.495903 24.725247 78.491466 49.549992 78.491466 106.786203 0 152.629895-138.895028 276.368065-320.694413 276.368065-181.811822 0-297.333117-103.357668-277.313295-254.673361 17.839158-134.794883 95.770947-288.24149 277.309149-298.058623 189.394397-10.24 187.607579 131.544615 242.207093 169.577716z" fill="#F5CBA7" /><path d="M303.547595 147.829117s-112.523919 95.795822-22.818202 206.474883c41.901085 51.69749 0.290202 161.078931 209.306429 49.193457 147.348211-78.87702 197.806121-155.768227 167.911125-211.109829-29.899142-55.345749-145.27119-201.844081-354.399352-44.558511z" fill="#F9D5B3" /><path d="M534.22536 343.4297a10.049296 10.049296 0 0 1 13.544162-4.216226 12.089004 12.089004 0 0 0 16.321814-5.070251 12.076567 12.076567 0 0 0-5.078542-16.317668c-16.678348-8.772405-37.398802-2.329911-46.175353 14.352583a12.089004 12.089004 0 0 0 5.070251 16.321813 12.072421 12.072421 0 0 0 16.317668-5.070251z" fill="#6E6E96" /><path d="M255.245474 146.676599s28.86685-46.747466 144.893927-23.373733c0 0-24.833036-38.509862-80.328033-30.935579-55.503287 7.561846-64.565895 44.065166-64.565894 54.309312z" fill="#8B5C29" /><path d="M683.944939 281.612437c22.511417 28.684437 19.903741 121.868437-49.093959 175.991191-68.993555 54.126899-178.242332 48.704259-200.749603 20.015676-22.503126-28.684437 58.736972-40.29668 127.738817-94.431871 68.989409-54.118607 99.601619-130.263579 122.104745-101.574996z" fill="#BA7D7D" /><path d="M506.747336 515.494866c-40.081101 0-72.115304-10.331206-85.692632-27.639708-8.030316-10.235854-8.059336-19.65085-6.666364-25.740956 4.23281-18.56881 24.820599-28.692729 55.984194-44.015417 24.003887-11.802947 53.878154-26.495482 81.231806-47.953878 27.349506-21.454251 48.729134-46.975482 65.900826-67.476211 22.146591-26.433296 36.772794-43.89519 55.619368-43.89519 6.376162 0 15.69166 2.188955 23.867077 12.611368 14.949571 19.053862 20.057134 55.097004 13.005215 91.815903-8.241749 42.925085-31.296259 81.086704-64.909992 107.453668-36.325053 28.493733-86.745652 44.840421-138.339498 44.840421z m-58.629182-47.037668c6.081814 5.940858 25.537814 13.871676 58.629182 13.871676 43.654737 0 87.715757-14.120421 117.86779-37.771919 36.864-28.916599 48.911547-67.306235 52.80855-87.616259 5.534575-28.80881 1.409555-53.476016-5.67553-63.923303-6.587595 4.406931-18.784389 18.970947-28.817101 30.94387-18.170818 21.686413-40.781733 48.679385-70.859142 72.272842-30.081555 23.597603-61.676308 39.13587-87.064875 51.622867-13.996049 6.881943-31.006057 15.252211-36.888874 20.600226z" fill="#6E6E96" /><path d="M286.620502 127.357409s66.452211-8.91336 94.726219 10.397538c0 0-9.000421-28.481296-68.935515-32.042494M344.660988 83.13885s49.525117-7.83132 79.349635 21.989053c0 0-16.968551-25.326381-51.614574-31.263093" fill="#ED9B45" /><path d="M414.048389 355.021215l0.004145 0.016583c-3.138332-13.021798-4.245247-34.98183 3.370494-40.748567 2.18481-1.650008 11.479579-5.828923 39.388761 9.829571a12.084858 12.084858 0 0 0 11.827822-21.072842c-29.555045-16.582996-51.100502-19.194818-65.851077-7.988859-23.183028 17.615287-13.407352 60.834721-12.217522 65.705976a12.084858 12.084858 0 1 0 23.477377-5.741862zM527.003466 278.66481l0.004145 0.016583c-3.138332-13.021798-4.236955-34.98183 3.370494-40.748567 2.176518-1.650008 11.479579-5.828923 39.384616 9.829571a12.084858 12.084858 0 0 0 11.836113-21.076988c-29.55919-16.582996-51.100502-19.194818-65.851077-7.988858-23.183028 17.615287-13.407352 60.834721-12.217522 65.70183a12.089004 12.089004 0 0 0 14.605474 8.871902 12.072421 12.072421 0 0 0 8.867757-14.605473z" fill="#6E6E96" /><path d="M448.474688 596.904939c-104.294607 0-190.625684-32.966996-243.090137-92.831611-42.377846-48.35187-59.893636-110.803433-50.661053-180.601263 10.409976-78.644858 39.061247-151.08353 80.676275-203.979142C288.291239 52.273749 359.676891 15.778721 447.579206 11.027692a371.84881 371.84881 0 0 1 19.916179-0.551384c128.418721 0 168.640777 72.227239 198.009263 124.969457 11.703449 21.018947 21.814931 39.173182 34.65017 48.115563 2.640842 1.836567 5.323142 3.677279 8.02617 5.530429 34.563109 23.701247 77.571109 53.198251 77.571109 114.862122 0 164.271158-148.14834 292.951061-337.277409 292.95106z m19.020697-553.262639c-5.853798 0-11.952194 0.169976-18.129361 0.501635-52.978526 2.864713-228.426623 31.789603-261.766737 283.681166-7.943255 60.051174 6.828049 113.44013 42.721944 154.391838 46.075854 52.572243 123.547466 81.526154 218.149312 81.526154 170.531239 0 304.111417-114.111741 304.111417-259.789214 0-44.193684-30.678543-65.23336-63.160486-87.50847-2.76936-1.898753-5.517992-3.785069-8.221021-5.671385-19.128486-13.324437-31.532567-35.603692-44.670445-59.193004-28.17451-50.594721-60.109215-107.938721-169.034623-107.93872z" fill="#6E6E96" /><path d="M527.281231 27.059304c108.755433 26.980534 145.432874 109.576291 145.432874 109.576291-188.847158 97.773344-341.348534 39.413636-341.348534 39.413636 34.028308 183.188211-74.349862 267.185231-74.349862 267.185231l-30.711709-74.229636 30.711709 74.229636c11.757344 26.972243-4.411077 47.833652-22.776745 69.35838-49.819466-45.71932-95.804113-126.818462-85.609717-203.867206-0.004146 0 16.185004-337.762462 378.651984-281.666332z" fill="#FFF6C7" /><path d="M239.582834 526.468664a16.587142 16.587142 0 0 1-11.214251-4.365474c-52.999255-48.642073-101.579142-134.728551-90.916275-217.622801 0.501636-8.38685 5.804049-79.187951 44.91919-150.577749C220.470931 84.374283 298.734381 1.484178 455.215676 1.484178c25.264194 0 52.16596 2.180664 79.963207 6.479806 0.485053 0.078769 0.970105 0.174121 1.455157 0.294348 115.301571 28.601522 154.959806 115.268405 156.589086 118.941538a16.582996 16.582996 0 0 1-7.532826 21.454251c-75.038057 38.849814-153.164696 58.550413-232.215838 58.550413-41.909377 0-75.149992-5.683822-96.409393-10.729198 17.764534 144.674202-50.238186 224.844696-75.556275 249.205117 7.33383 32.025911-14.402332 57.497393-29.310446 74.967579a16.582996 16.582996 0 0 1-12.615514 5.820632zM455.215676 34.65017c-112.242008 0-194.108113 45.213538-243.314008 134.388599-37.431968 67.836891-41.324826 137.104065-41.362138 137.796405-0.020729 0.447741-0.066332 0.912065-0.124372 1.359806-6.334704 47.866818 12.540891 119.327093 67.741538 177.093959 11.272291-15.152713 14.510121-25.496356 9.000421-38.136745l-0.120226-0.286056-30.711709-74.229636a16.582996 16.582996 0 0 1 30.649522-12.6777l21.354753 51.610429c27.030283-30.666105 75.995725-106.450397 52.078899-235.192486a16.57885 16.57885 0 0 1 22.233652-18.514915c0.397992 0.149247 43.592551 16.18915 110.832454 16.185004 68.326089 0 136.063482-15.865781 201.587044-47.182769-14.850073-22.884534-52.294478-67.791287-125.699109-86.231579-25.857036-3.971628-50.797862-5.982316-74.146721-5.982316z" fill="#6E6E96" /><path d="M558.768194 961.585749c122.241555 0 217.199935-43.352097 217.199936-206.072745 0-8.113231-0.567968-34.956955-17.814284-24.074364-50.611304 20.297587-110.268632 44.293182-177.51268 58.293376-60.453312 12.582348-74.436923 18.846575-127.286931 15.49681-27.175385-1.724632-103.067466 33.253053-96.28502 58.330688 18.713911 124.467822 91.849069 98.026235 201.698979 98.026235z" fill="#E8E8E8" /><path d="M470.774672 980.52353h-0.008291c-69.507628-0.004146-115.51715-19.049717-129.981668-113.742769-1.567093-6.86536-1.272745-17.163401 7.785716-28.991223 19.39796-25.342964 74.333279-49.201749 102.756535-49.201749 1.061312 0 2.093603 0.033166 3.076145 0.091207 41.167287 2.607676 56.979174-0.849879 94.601846-9.104065 8.279061-1.815838 17.540664-3.847255 28.249134-6.077668 65.278964-13.589765 122.763919-36.611109 173.503741-56.958445 4.900275-2.814964 9.808842-4.236955 14.617911-4.236956 10.148794 0 27.171239 5.613344 27.171239 43.215288 0 149.827368-76.46834 222.655741-233.782931 222.655741-17.026591 0-33.074785 0.642591-48.592324 1.268599-13.859239 0.55553-26.959806 1.08204-39.397053 1.08204z m-97.425101-120.222575l0.120227 0.795984c11.09817 73.802623 38.982478 86.256453 97.296583 86.260599h0.008291c11.769781 0 24.54698-0.514073 38.070413-1.057166 15.845053-0.6343 32.229053-1.293474 49.923109-1.293473 138.745781 0 200.616939-58.442623 200.61694-189.489749 0-2.640842-0.095352-4.81736-0.240454-6.604178-48.766445 19.543061-108.796891 43.248453-175.124729 57.057943-10.579951 2.201393-19.725474 4.212081-27.90089 6.003045-38.858105 8.527806-58.03634 12.710866-103.813701 9.808842a14.883239 14.883239 0 0 0-0.978396-0.029021c-23.77587 0-73.616065 26.578397-77.977393 38.547174z" fill="#6E6E96" /><path d="M642.972502 893.753004c-57.302543 3.40366 77.877895-27.017846 80.153911-27.536065 13.971174-22.175611 20.965053-51.22902 18.713911-89.096291-0.33166-5.64651-1.91119-20.272713-15.49681-11.860988-40.354721 16.570559-87.918899 32.129555-142.074818 45.130623-48.687676 11.678575-60.105069 11.811239-103.266461 12.03511-22.179757 0.124372-108.763725 27.714332-102.20515 44.836275 20.397085 85.696777 105.376648 69.07647 194.779725 63.761619 30.19349-1.795109 58.139984-6.28081 82.288971-14.767157 1.276891-0.742089 44.032-25.898494-12.893279-22.503126z" fill="#FFFFFF" /><path d="M526.087255 869.417457c12.897425 43.497198 2.541344 85.779692-69.528356 110.098656-72.077992 24.310672-112.200551-0.936939-125.110413-44.429992-12.897425-43.488907 6.30983-88.760486 78.375384-113.075303 72.077992-24.314818 103.357668 3.917733 116.263385 47.406639z" fill="#F9D5B3" /><path d="M510.408032 863.377101c-8.071773-17.577976-20.890429-30.686834-40.926834-35.213992-8.55268-1.057166-18.145943-1.351514-28.514461-0.912064-9.232583 1.127644-19.460146 3.499012-30.82779 7.342121-65.432356 22.067822-82.873522 63.172923-71.161781 102.661182a80.70115 80.70115 0 0 0 5.020502 12.855968c16.384-1.977522 34.086348-5.61749 52.311061-11.027693 60.789117-18.063028 107.225652-49.744842 114.099303-75.705522z" fill="#FFE2C7" /><path d="M410.764955 1002.864972c-44.699466 0-77.450883-23.966575-89.854963-65.755725-6.546138-22.071968-19.468437-96.91932 88.967773-133.522138 19.352356-6.525409 37.096162-9.837862 52.742219-9.837862 29.409943 0 67.981992 11.840259 84.722526 68.24732 12.723304 42.920939 9.153814 100.401749-80.124891 130.524761-20.34319 6.861215-39.339012 10.343644-56.452664 10.343644z m51.855029-175.949733c-12.030964 0-26.209425 2.723757-42.141539 8.096648-55.834947 18.846575-79.905166 51.751385-67.774704 92.665781 8.279061 27.884308 27.81383 42.025457 58.061214 42.025458 13.502704 0 28.929036-2.893733 45.847839-8.60243 68.902348-23.24936 67.687644-60.134089 58.927676-89.67255-9.133085-30.786332-25.454899-44.512907-52.920486-44.512907z" fill="#6E6E96" /><path d="M445.618267 922.172113c-9.551806-51.796988-23.755142-75.921101-39.094413-90.240518 0 0-90.232227-49.230769-90.232226 50.611304 1.239579 20.923595 6.881943 44.313911 17.155109 67.434753 26.412567 59.408583 61.90847 68.856745 93.308372 52.609554 9.866883-5.103417 18.150089-12.138753 24.066073-21.226234" fill="#F9D5B3" /><path d="M405.106008 1023.53153c-7.346267 0-14.597182-1.227142-21.624227-3.693862-24.032907-8.436599-44.164664-30.587336-59.831449-65.830348-10.733344-24.144842-17.150964-49.45464-18.556372-73.189053a19.269441 19.269441 0 0 1-0.029021-0.978397c0-35.213992 10.343644-59.205441 30.744875-71.315174 33.866623-20.094445 78.980664 3.399514 84.013603 6.139855 1.222996 0.667466 2.354785 1.484178 3.37464 2.4377 21.524729 20.098591 35.11864 50.739822 44.081749 99.361166a16.582996 16.582996 0 0 1-32.614608 6.015482c-9.332081-50.623741-22.710413-69.868308-32.535838-79.623255-10.094899-4.95417-35.350802-14.190899-49.433911-5.787466-11.827822 7.060211-14.406478 26.777393-14.460372 42.278348 1.231287 19.663287 6.666364 40.810753 15.724826 61.18711 11.641263 26.188696 25.649749 42.792421 40.508113 48.007773 9.282332 3.262704 19.385522 2.118478 30.02766-3.382931 7.66549-3.967482 13.651951-9.203563 17.793555-15.55485a16.582996 16.582996 0 0 1 27.784809 18.104485c-7.308955 11.218397-17.515789 20.268567-30.334445 26.905911-11.467142 5.928421-23.170591 8.917506-34.633587 8.917506z" fill="#6E6E96" /></svg>