<svg class="svg-icon" style="width: 1em; height: 1em;vertical-align: middle;fill: currentColor;overflow: hidden;" viewBox="0 0 1024 1024" version="1.1" xmlns="http://www.w3.org/2000/svg"><path d="M661.6 107.9l31.5 5.9c22 4.2 42.1 15.5 56.9 32.4l192.8 218.9c11.3 13.2 10.6 32.9-1.6 45.3l-79.8 81.3c-12.9 13.2-34.1 13.4-47.3 0.6l-71.7-69.6-6.5 36.1c-10.9 60.5-10.7 122.4 0.7 182.8L779 866.4c1.5 18.1-11.7 34.1-29.8 36.1-49.2 5.4-146.1 14.6-233.5 14.6-79.4 0-186.6-11.7-239.3-18-17.9-2.2-30.7-18.1-29.3-36l42.4-216.8c12.4-63.3 12.5-128.5 0.3-191.9l-6.4-33-72.5 70.9c-13.2 12.9-34.5 12.7-47.4-0.5l-79.7-81.3C71.6 398 71 378.3 82.2 365.1l192.3-218.2c15.2-17.2 35.7-28.7 58.3-32.6l30.3-5.3s43 100 148.6 100c106.9 0 149.9-101.1 149.9-101.1z" fill="#00A8FF" /><path d="M723.6 904.9s-61.3-395.5 12-489.3c0 0-30.7 100 43.3 449.9 0 0 10 41.4-55.3 39.4z" fill="#007FFF" /><path d="M515.6 930.1c-79.3 0-184.9-11.4-240.8-18.1-24.9-3-42.7-25-40.7-50 0-0.5 0.1-1 0.2-1.4l42.4-216.8c12.1-62 12.2-124.9 0.3-186.9l-1.8-9.3-55.2 54c-9 8.8-20.8 13.2-32.5 13.2-12.1 0-24.1-4.7-33.2-13.9l-79.7-81.3c-17-17.3-17.9-44.3-2.2-62.8 0-0.1 0.1-0.1 0.1-0.2l192.3-218.2c17.1-19.4 40.5-32.4 65.9-36.8l30.3-5.3c5.9-1 11.8 2.1 14.2 7.7 0.1 0.2 10.5 23.7 32.8 46.8 29.1 30.1 64.1 45.4 103.9 45.4 40.6 0 76-15.6 105.4-46.5 22.2-23.3 32.2-46.4 32.3-46.6 2.4-5.6 8.4-8.8 14.4-7.7l31.5 5.9c24.8 4.7 47.6 17.6 64.2 36.6l192.8 218.9c0 0.1 0.1 0.1 0.1 0.2 15.8 18.5 14.8 45.5-2.2 62.8l-79.8 81.3c-17.9 18.2-47.4 18.6-65.7 0.8l-54-52.9-2.2 12.1c-10.7 59.1-10.5 119 0.6 178l42.4 224.8c0.1 0.4 0.1 0.9 0.2 1.3 2.1 25.3-16.1 47.3-41.4 50.1-50.1 5.6-147.2 14.8-234.9 14.8zM260 864.7c-0.6 10.8 7.2 20.1 17.9 21.4 55.3 6.7 159.8 17.9 237.7 17.9 86.5 0 182.5-9.1 232.1-14.5 11-1.2 18.9-10.6 18.3-21.5l-42.2-224c-11.7-62.2-11.9-125.2-0.7-187.5l6.5-35.8c0.5-3.3 2.3-6.4 5.2-8.5 5.1-3.7 12.2-3.3 16.7 1.2l71.7 69.6c8.1 7.9 21.1 7.7 29-0.3l79.8-81.3c7.5-7.6 7.9-19.5 1-27.7L740.2 154.8c-12.8-14.6-30.4-24.6-49.5-28.2l-21.8-4.1c-5.6 10.3-16.2 27.6-32.7 44.9-34 35.7-77 54.5-124.3 54.5-46.8 0-89.5-18.7-123.3-54-16.5-17.2-27.1-34.3-32.6-44.5l-20.8 3.6c-19.6 3.4-37.7 13.5-50.8 28.4L92.1 373.6c-6.9 8.2-6.5 20 1 27.7l79.7 81.3c7.9 8.1 21 8.2 29 0.3l72.5-70.9c3.4-3.3 8.4-4.5 13-3.1s8 5.2 8.9 9.9l6.4 33c12.6 65.3 12.5 131.5-0.3 196.8L260 864.7z" fill="#0B0E54" /><path d="M336.9 459.7c0.4 3 0.7 5.8 1.1 8 1.1 6.4 6.6 10.9 12.8 10.9 0.7 0 1.4-0.1 2.1-0.2 7.1-1.2 11.9-7.9 10.7-14.9-0.3-1.7-0.6-4.4-0.9-7-0.5-3.8-1-7.8-1.5-10.8-1.4-7.1-8.2-11.7-15.2-10.3-7 1.4-11.7 8.2-10.3 15.2 0.4 2.2 0.8 5.9 1.2 9.1zM368.7 506c-0.6-7.2-6.9-12.5-14-11.9-7.2 0.6-12.5 6.9-11.9 14 3.8 45.3 1.4 90.9-7.4 135.5-1.4 7 3.2 13.9 10.3 15.3 0.8 0.2 1.7 0.2 2.5 0.2 6.1 0 11.5-4.3 12.7-10.5 9.2-46.9 11.9-94.9 7.8-142.6z" fill="#FFFFFF" /><path d="M661.6 108.4c-34.8 60-75.4 101-149.7 101s-113.8-40-148.6-100c34.8 15.7 74.3 26 148.6 26s114.9-11.3 149.7-27z" fill="#A3E7F9" /><path d="M511.9 222.5c-38 0-69.7-9.8-96.9-30.1-22.7-16.9-42.1-40.4-63-76.4-2.8-4.9-2.2-11 1.6-15.2 3.8-4.2 9.8-5.5 15-3.1 45.7 20.6 90.4 24.8 143.3 24.8 76.4 0 114.5-12.4 144.3-25.9 5.1-2.3 11.2-1 15 3.1 3.8 4.2 4.4 10.4 1.6 15.2-20.6 35.5-40.8 59.9-63.5 76.9-27.6 20.7-59.4 30.7-97.4 30.7z m-116.5-87.3c27.9 37.8 61.8 61.3 116.5 61.3 32.2 0 59-8.3 81.9-25.5 12.3-9.2 23.9-21.2 35.5-36.7-33.4 9.9-69.9 14.1-117.3 14.1-53.8 0-89.5-5.5-116.6-13.2z" fill="#0B0E54" /></svg>